<mxfile host="Electron" modified="2023-04-23T11:48:54.980Z" agent="Mozilla/5.0 (Macintosh; Intel Mac OS X 10_15_7) AppleWebKit/537.36 (KHTML, like Gecko) draw.io/21.2.1 Chrome/112.0.5615.87 Electron/24.1.2 Safari/537.36" etag="B0c-u4dMghXbIw0hXhhb" version="21.2.1" type="device">
  <diagram name="Page-1" id="mi3I3wIsWBfMpBYes4BF">
    <mxGraphModel dx="1026" dy="658" grid="1" gridSize="10" guides="1" tooltips="1" connect="1" arrows="1" fold="1" page="1" pageScale="1" pageWidth="827" pageHeight="1169" math="0" shadow="0">
      <root>
        <mxCell id="0" />
        <mxCell id="1" parent="0" />
        <mxCell id="-effo-sYx7ZinQzHmtEc-16" style="edgeStyle=orthogonalEdgeStyle;rounded=0;orthogonalLoop=1;jettySize=auto;html=1;exitX=1;exitY=0;exitDx=0;exitDy=0;entryX=0;entryY=0.5;entryDx=0;entryDy=0;" edge="1" parent="1" source="-effo-sYx7ZinQzHmtEc-1" target="-effo-sYx7ZinQzHmtEc-2">
          <mxGeometry relative="1" as="geometry" />
        </mxCell>
        <mxCell id="-effo-sYx7ZinQzHmtEc-17" style="edgeStyle=orthogonalEdgeStyle;rounded=0;orthogonalLoop=1;jettySize=auto;html=1;exitX=1;exitY=1;exitDx=0;exitDy=0;entryX=0;entryY=0.75;entryDx=0;entryDy=0;" edge="1" parent="1" source="-effo-sYx7ZinQzHmtEc-1" target="-effo-sYx7ZinQzHmtEc-4">
          <mxGeometry relative="1" as="geometry" />
        </mxCell>
        <mxCell id="-effo-sYx7ZinQzHmtEc-1" value="&lt;font style=&quot;font-size: 18px;&quot;&gt;views.py&lt;/font&gt;" style="rounded=1;whiteSpace=wrap;html=1;" vertex="1" parent="1">
          <mxGeometry x="430" y="200" width="120" height="60" as="geometry" />
        </mxCell>
        <mxCell id="-effo-sYx7ZinQzHmtEc-2" value="&lt;font style=&quot;font-size: 18px;&quot;&gt;models.py&lt;/font&gt;" style="rounded=1;whiteSpace=wrap;html=1;" vertex="1" parent="1">
          <mxGeometry x="620" y="140" width="120" height="60" as="geometry" />
        </mxCell>
        <mxCell id="-effo-sYx7ZinQzHmtEc-4" value="&lt;font style=&quot;font-size: 18px;&quot;&gt;templates&lt;/font&gt;" style="rounded=1;whiteSpace=wrap;html=1;" vertex="1" parent="1">
          <mxGeometry x="620" y="260" width="120" height="60" as="geometry" />
        </mxCell>
        <mxCell id="-effo-sYx7ZinQzHmtEc-15" style="edgeStyle=orthogonalEdgeStyle;rounded=0;orthogonalLoop=1;jettySize=auto;html=1;exitX=1;exitY=0.5;exitDx=0;exitDy=0;entryX=0;entryY=0.75;entryDx=0;entryDy=0;" edge="1" parent="1" source="-effo-sYx7ZinQzHmtEc-6" target="-effo-sYx7ZinQzHmtEc-1">
          <mxGeometry relative="1" as="geometry" />
        </mxCell>
        <mxCell id="-effo-sYx7ZinQzHmtEc-6" value="urls.py" style="swimlane;whiteSpace=wrap;html=1;" vertex="1" parent="1">
          <mxGeometry x="160" y="140" width="200" height="160" as="geometry" />
        </mxCell>
        <mxCell id="-effo-sYx7ZinQzHmtEc-7" value="Mapping of views&lt;br&gt;and&amp;nbsp;&lt;br&gt;requested urls" style="text;html=1;align=center;verticalAlign=middle;resizable=0;points=[];autosize=1;strokeColor=none;fillColor=none;" vertex="1" parent="-effo-sYx7ZinQzHmtEc-6">
          <mxGeometry x="40" y="43" width="120" height="60" as="geometry" />
        </mxCell>
        <mxCell id="-effo-sYx7ZinQzHmtEc-8" value="(url_path, view_func)" style="text;html=1;align=center;verticalAlign=middle;resizable=0;points=[];autosize=1;strokeColor=none;fillColor=none;" vertex="1" parent="-effo-sYx7ZinQzHmtEc-6">
          <mxGeometry x="40" y="110" width="130" height="30" as="geometry" />
        </mxCell>
        <mxCell id="-effo-sYx7ZinQzHmtEc-14" style="edgeStyle=orthogonalEdgeStyle;rounded=0;orthogonalLoop=1;jettySize=auto;html=1;exitX=1;exitY=0.5;exitDx=0;exitDy=0;entryX=0;entryY=0.5;entryDx=0;entryDy=0;" edge="1" parent="1" source="-effo-sYx7ZinQzHmtEc-13" target="-effo-sYx7ZinQzHmtEc-6">
          <mxGeometry relative="1" as="geometry" />
        </mxCell>
        <mxCell id="-effo-sYx7ZinQzHmtEc-13" value="Broswer" style="ellipse;whiteSpace=wrap;html=1;aspect=fixed;" vertex="1" parent="1">
          <mxGeometry x="30" y="180" width="80" height="80" as="geometry" />
        </mxCell>
        <mxCell id="-effo-sYx7ZinQzHmtEc-19" style="edgeStyle=orthogonalEdgeStyle;rounded=0;orthogonalLoop=1;jettySize=auto;html=1;exitX=0.5;exitY=0;exitDx=0;exitDy=0;entryX=0.5;entryY=1;entryDx=0;entryDy=0;" edge="1" parent="1" source="-effo-sYx7ZinQzHmtEc-18" target="-effo-sYx7ZinQzHmtEc-4">
          <mxGeometry relative="1" as="geometry" />
        </mxCell>
        <mxCell id="-effo-sYx7ZinQzHmtEc-18" value="HTML pages with django template language" style="shape=document;whiteSpace=wrap;html=1;boundedLbl=1;" vertex="1" parent="1">
          <mxGeometry x="620" y="360" width="120" height="80" as="geometry" />
        </mxCell>
      </root>
    </mxGraphModel>
  </diagram>
</mxfile>
